<?xml version="1.0" encoding="utf-8"?>
<!-- Generator: Adobe Illustrator 21.1.0, SVG Export Plug-In . SVG Version: 6.00 Build 0)  -->
<svg version="1.1" id="Layer_1" xmlns="http://www.w3.org/2000/svg" xmlns:xlink="http://www.w3.org/1999/xlink" x="0px" y="0px"
	 viewBox="0 0 448 512" style="enable-background:new 0 0 448 512;" xml:space="preserve">
<style type="text/css">
	.st0{fill:#4097FF;}
	.st1{fill:#FFFFFF;}
</style>
<path class="st0" d="M400,32H48C21.5,32,0,53.5,0,80v352c0,26.5,21.5,48,48,48h352c26.5,0,48-21.5,48-48V80
	C448,53.5,426.5,32,400,32z"/>
<path class="st1" d="M400,64c8.8,0,16,7.2,16,16v352c0,8.8-7.2,16-16,16H48c-8.8,0-16-7.2-16-16V80c0-8.8,7.2-16,16-16H400"/>
<path class="st0" d="M365.7,162.3l-8.5-8.5c-4.7-4.7-12.3-4.7-17-0.1L176.8,315.8l-69-69.5c-4.7-4.7-12.3-4.7-17-0.1l-8.5,8.5
	c-4.7,4.7-4.7,12.3-0.1,17l85.9,86.6c4.7,4.7,12.3,4.7,17,0.1l180.5-179C370.3,174.6,370.4,167,365.7,162.3L365.7,162.3z"/>
</svg>
