<?xml version="1.0" encoding="utf-8"?>
<!-- Generator: Adobe Illustrator 21.1.0, SVG Export Plug-In . SVG Version: 6.00 Build 0)  -->
<svg version="1.1" id="Layer_1" xmlns:serif="http://www.serif.com/"
	 xmlns="http://www.w3.org/2000/svg" xmlns:xlink="http://www.w3.org/1999/xlink" x="0px" y="0px" viewBox="0 0 306 306"
	 style="enable-background:new 0 0 306 306;" xml:space="preserve">
<style type="text/css">
	.st0{fill:#999999;}
</style>
<path class="st0" d="M249.8,90H56.2c-1.5,0-2.7-1.2-2.7-2.7V76.6c0-1.5,1.2-2.7,2.7-2.7h193.6c1.5,0,2.7,1.2,2.7,2.7v10.7
	C252.4,88.8,251.2,90,249.8,90z M249.8,161H56.2c-1.5,0-2.7-1.2-2.7-2.7v-10.6c0-1.5,1.2-2.7,2.7-2.7h193.6c1.5,0,2.7,1.2,2.7,2.7
	v10.6C252.4,159.8,251.2,161,249.8,161z M249.8,232H56.2c-1.5,0-2.7-1.2-2.7-2.7v-10.7c0-1.5,1.2-2.7,2.7-2.7h193.6
	c1.5,0,2.7,1.2,2.7,2.7v10.7C252.4,230.8,251.2,232,249.8,232z"/>
<path class="st0" d="M166.1,153l70.6-70.6c2.4-2.4,2.4-6.3,0-8.7l-4.4-4.4c-2.4-2.4-6.3-2.4-8.7,0L153,139.9L82.4,69.4
	c-2.4-2.4-6.3-2.4-8.7,0l-4.4,4.4c-2.4,2.4-2.4,6.3,0,8.7l70.6,70.5l-70.5,70.6c-2.4,2.4-2.4,6.3,0,8.7l4.4,4.4
	c2.4,2.4,6.3,2.4,8.7,0l70.5-70.6l70.6,70.6c2.4,2.4,6.3,2.4,8.7,0l4.4-4.4c2.4-2.4,2.4-6.3,0-8.7L166.1,153z"/>
</svg>
