<?xml version="1.0" encoding="UTF-8" standalone="no"?><!DOCTYPE svg PUBLIC "-//W3C//DTD SVG 1.1//EN" "http://www.w3.org/Graphics/SVG/1.1/DTD/svg11.dtd"><svg width="100%" height="100%" viewBox="0 0 40 80" version="1.1" xmlns="http://www.w3.org/2000/svg" xmlns:xlink="http://www.w3.org/1999/xlink" xml:space="preserve" xmlns:serif="http://www.serif.com/" style="fill-rule:evenodd;clip-rule:evenodd;stroke-linejoin:round;stroke-miterlimit:1.41421;"><rect id="Artboard1" x="0" y="0" width="40" height="80" style="fill:none;"/><clipPath id="_clip1"><rect x="0" y="0" width="40" height="80"/></clipPath><g clip-path="url(#_clip1)"><g><path d="M32.652,11.759l-25.304,0c-0.191,0 -0.348,-0.157 -0.348,-0.348l0,-1.393c0,-0.191 0.157,-0.348 0.348,-0.348l25.304,0c0.191,0 0.348,0.157 0.348,0.348l0,1.393c0,0.191 -0.157,0.348 -0.348,0.348Zm0,9.286l-25.304,0c-0.191,0 -0.348,-0.158 -0.348,-0.349l0,-1.392c0,-0.191 0.157,-0.349 0.348,-0.349l25.304,0c0.191,0 0.348,0.158 0.348,0.349l0,1.392c0,0.191 -0.157,0.349 -0.348,0.349Zm0,9.285l-25.304,0c-0.191,0 -0.348,-0.157 -0.348,-0.348l0,-1.393c0,-0.191 0.157,-0.348 0.348,-0.348l25.304,0c0.191,0 0.348,0.157 0.348,0.348l0,1.393c0,0.191 -0.157,0.348 -0.348,0.348Z" style="fill:#999;fill-rule:nonzero;"/><rect x="0" y="0" width="40" height="40" style="fill:none;"/></g><g><path d="M32.652,51.759l-25.304,0c-0.191,0 -0.348,-0.157 -0.348,-0.348l0,-1.393c0,-0.191 0.157,-0.348 0.348,-0.348l25.304,0c0.191,0 0.348,0.157 0.348,0.348l0,1.393c0,0.191 -0.157,0.348 -0.348,0.348Zm0,9.286l-25.304,0c-0.191,0 -0.348,-0.158 -0.348,-0.349l0,-1.392c0,-0.191 0.157,-0.349 0.348,-0.349l25.304,0c0.191,0 0.348,0.158 0.348,0.349l0,1.392c0,0.191 -0.157,0.349 -0.348,0.349Zm0,9.285l-25.304,0c-0.191,0 -0.348,-0.157 -0.348,-0.348l0,-1.393c0,-0.191 0.157,-0.348 0.348,-0.348l25.304,0c0.191,0 0.348,0.157 0.348,0.348l0,1.393c0,0.191 -0.157,0.348 -0.348,0.348Z" style="fill:#fff;fill-rule:nonzero;"/><rect x="0" y="40" width="40" height="40" style="fill:none;"/></g></g></svg>