<?xml version="1.0" encoding="utf-8"?>
<!-- Generator: Adobe Illustrator 21.1.0, SVG Export Plug-In . SVG Version: 6.00 Build 0)  -->
<svg version="1.1" id="Layer_1" xmlns="http://www.w3.org/2000/svg" xmlns:xlink="http://www.w3.org/1999/xlink" x="0px" y="0px"
	 viewBox="0 0 448 512" style="enable-background:new 0 0 448 512;" xml:space="preserve">
<style type="text/css">
	.st0{fill:#999999;}
	.st1{fill:#FFAA00;}
</style>
<g>
	<path class="st0" d="M426,187.3V432c0,14.3-11.7,26-26,26H48c-14.3,0-26-11.7-26-26V300.2L0,278v154c0,26.5,21.5,48,48,48h352
		c26.5,0,48-21.5,48-48V165.4L426,187.3z"/>
	<path class="st0" d="M12,183.3c3.1-3,6.4-5.7,10-7.9V80c0-14.3,11.7-26,26-26h323.6l6.7-6.7c7.5-7.5,16.7-12.6,26.8-15.1
		c-1.7-0.2-3.4-0.3-5.1-0.3H48C21.5,32,0,53.5,0,80v115.2L12,183.3z"/>
</g>
<path class="st1" d="M443.9,88.3l-12.4-12.5c-6.9-6.9-18-7-24.9-0.1L166.4,313.9L65.1,211.8c-6.9-6.9-18-7-24.9-0.1l-12.5,12.4
	c-6.9,6.9-7,18-0.1,24.9l126.2,127.2c6.9,6.9,18,7,24.9,0.1l265.1-263C450.7,106.4,450.7,95.3,443.9,88.3L443.9,88.3z"/>
</svg>
