<?xml version="1.0" encoding="UTF-8" standalone="no"?><!DOCTYPE svg PUBLIC "-//W3C//DTD SVG 1.1//EN" "http://www.w3.org/Graphics/SVG/1.1/DTD/svg11.dtd"><svg width="100%" height="100%" viewBox="0 0 20 40" version="1.1" xmlns="http://www.w3.org/2000/svg" xmlns:xlink="http://www.w3.org/1999/xlink" xml:space="preserve" xmlns:serif="http://www.serif.com/" style="fill-rule:evenodd;clip-rule:evenodd;stroke-linejoin:round;stroke-miterlimit:1.41421;"><rect id="Artboard1" x="0" y="0" width="20" height="40" style="fill:none;"/><clipPath id="_clip1"><rect x="0" y="0" width="20" height="40"/></clipPath><g clip-path="url(#_clip1)"><path d="M17.857,0l-15.714,0c-1.183,0 -2.143,0.96 -2.143,2.143l0,15.714c0,1.183 0.96,2.143 2.143,2.143l15.714,0c1.183,0 2.143,-0.96 2.143,-2.143l0,-15.714c0,-1.183 -0.96,-2.143 -2.143,-2.143Zm1.161,17.857c0,0.639 -0.522,1.161 -1.161,1.161l-15.714,0c-0.639,0 -1.161,-0.522 -1.161,-1.161l0,-15.714c0,-0.639 0.522,-1.161 1.161,-1.161l15.714,0c0.639,0 1.161,0.522 1.161,1.161l0,15.714Z" style="fill:#999;fill-rule:nonzero;"/><g><path d="M19.014,26.936l0,10.922c0,0.638 -0.523,1.16 -1.161,1.16l-15.711,0c-0.638,0 -1.16,-0.522 -1.16,-1.16l0,-5.883l-0.982,-0.991l0,6.874c0,1.182 0.96,2.142 2.142,2.142l15.711,0c1.183,0 2.143,-0.96 2.143,-2.142l0,-11.9l-0.982,0.978Z" style="fill:#999;fill-rule:nonzero;"/><path d="M0.536,26.757c0.138,-0.133 0.285,-0.254 0.446,-0.352l0,-4.258c0,-0.638 0.522,-1.161 1.16,-1.161l14.444,0l0.299,-0.299c0.334,-0.334 0.745,-0.562 1.196,-0.674c-0.076,-0.009 -0.152,-0.013 -0.228,-0.013l-15.711,0c-1.182,0.004 -2.142,0.964 -2.142,2.147l0,5.142l0.536,-0.532Z" style="fill:#999;fill-rule:nonzero;"/><path d="M19.768,22.517l-0.554,-0.558c-0.308,-0.308 -0.803,-0.312 -1.111,-0.004l-10.721,10.631l-4.521,-4.557c-0.308,-0.308 -0.803,-0.312 -1.111,-0.004l-0.558,0.553c-0.308,0.308 -0.313,0.804 -0.005,1.112l5.633,5.677c0.308,0.308 0.803,0.313 1.111,0.005l11.832,-11.739c0.308,-0.308 0.308,-0.803 0.005,-1.116Z" style="fill:#fa0;fill-rule:nonzero;"/></g></g></svg>