<?xml version="1.0" encoding="UTF-8" standalone="no"?><!DOCTYPE svg PUBLIC "-//W3C//DTD SVG 1.1//EN" "http://www.w3.org/Graphics/SVG/1.1/DTD/svg11.dtd"><svg width="100%" height="100%" viewBox="0 0 448 1792" version="1.1" xmlns="http://www.w3.org/2000/svg" xmlns:xlink="http://www.w3.org/1999/xlink" xml:space="preserve" style="fill-rule:evenodd;clip-rule:evenodd;stroke-linejoin:round;stroke-miterlimit:1.41421;"><rect id="Artboard1" x="0" y="0" width="448" height="1792" style="fill:none;"/><path d="M400,224l-352,0c-26.5,0 -48,21.5 -48,48l0,352c0,26.5 21.5,48 48,48l352,0c26.5,0 48,-21.5 48,-48l0,-352c0,-26.5 -21.5,-48 -48,-48Zm16,400c0,8.8 -7.2,16 -16,16l-352,0c-8.8,0 -16,-7.2 -16,-16l0,-352c0,-8.8 7.2,-16 16,-16l352,0c8.8,0 16,7.2 16,16l0,352Zm-200.5,-96.4l-115,-115.1c-4.7,-4.7 -4.7,-12.3 0,-17l7.1,-7.1c4.7,-4.7 12.3,-4.7 17,0l99.4,99.6l99.5,-99.5c4.7,-4.7 12.3,-4.7 17,0l7.1,7.1c4.7,4.7 4.7,12.3 0,17l-115,115.1c-4.8,4.5 -12.4,4.5 -17.1,-0.1Z" style="fill:#808080;fill-rule:nonzero;"/><path d="M400,1120l-352,0c-26.5,0 -48,21.5 -48,48l0,352c0,26.5 21.5,48 48,48l352,0c26.5,0 48,-21.5 48,-48l0,-352c0,-26.5 -21.5,-48 -48,-48Zm16,400c0,8.8 -7.2,16 -16,16l-352,0c-8.8,0 -16,-7.2 -16,-16l0,-352c0,-8.8 7.2,-16 16,-16l352,0c8.8,0 16,7.2 16,16l0,352Zm-200.5,-96.4l-115,-115.1c-4.7,-4.7 -4.7,-12.3 0,-17l7.1,-7.1c4.7,-4.7 12.3,-4.7 17,0l99.4,99.6l99.5,-99.5c4.7,-4.7 12.3,-4.7 17,0l7.1,7.1c4.7,4.7 4.7,12.3 0,17l-115,115.1c-4.8,4.5 -12.4,4.5 -17.1,-0.1Z" style="fill:#404040;fill-rule:nonzero;"/></svg>