<?xml version="1.0" encoding="utf-8"?>
<!-- Generator: Adobe Illustrator 21.1.0, SVG Export Plug-In . SVG Version: 6.00 Build 0)  -->
<svg version="1.1" id="Layer_1" xmlns="http://www.w3.org/2000/svg" xmlns:xlink="http://www.w3.org/1999/xlink" x="0px" y="0px"
	 viewBox="0 0 448 512" style="enable-background:new 0 0 448 512;" xml:space="preserve">
<style type="text/css">
	.st0{fill:#808080;}
</style>
<path class="st0" d="M400,32H48C21.5,32,0,53.5,0,80v352c0,26.5,21.5,48,48,48h352c26.5,0,48-21.5,48-48V80
	C448,53.5,426.5,32,400,32z M416,432c0,8.8-7.2,16-16,16H48c-8.8,0-16-7.2-16-16V80c0-8.8,7.2-16,16-16h352c8.8,0,16,7.2,16,16V432z
	 M215.5,335.6l-115-115.1c-4.7-4.7-4.7-12.3,0-17l7.1-7.1c4.7-4.7,12.3-4.7,17,0L224,296l99.5-99.5c4.7-4.7,12.3-4.7,17,0l7.1,7.1
	c4.7,4.7,4.7,12.3,0,17l-115,115.1C227.8,340.2,220.2,340.2,215.5,335.6z"/>
</svg>
