<?xml version="1.0" encoding="utf-8"?>
<!-- Generator: Adobe Illustrator 21.1.0, SVG Export Plug-In . SVG Version: 6.00 Build 0)  -->
<svg version="1.1" id="Layer_1" xmlns="http://www.w3.org/2000/svg" xmlns:xlink="http://www.w3.org/1999/xlink" x="0px" y="0px"
	 viewBox="0 0 512 512" style="enable-background:new 0 0 512 512;" xml:space="preserve">
<style type="text/css">
	.st0{fill:#999999;}
</style>
<path class="st0" d="M256,8C119,8,8,119,8,256s111,248,248,248s248-111,248-248S393,8,256,8z M416,415.5
	c-42.7,42.8-99.5,66.4-160,66.4c-60.2,0-116.8-23.4-159.5-65.9c-42.8-42.7-66.4-99.5-66.4-160c0-60.2,23.4-116.8,65.9-159.5
	c42.7-42.8,99.5-66.4,160-66.4c60.2,0,116.8,23.4,159.5,65.9c42.8,42.7,66.4,99.5,66.4,160C481.9,316.2,458.5,372.8,416,415.5z"/>
</svg>
