<?xml version="1.0" encoding="UTF-8" standalone="no"?><!DOCTYPE svg PUBLIC "-//W3C//DTD SVG 1.1//EN" "http://www.w3.org/Graphics/SVG/1.1/DTD/svg11.dtd"><svg width="100%" height="100%" viewBox="0 0 20 40" version="1.1" xmlns="http://www.w3.org/2000/svg" xmlns:xlink="http://www.w3.org/1999/xlink" xml:space="preserve" xmlns:serif="http://www.serif.com/" style="fill-rule:evenodd;clip-rule:evenodd;stroke-linejoin:round;stroke-miterlimit:1.41421;"><rect id="Artboard1" x="0" y="0" width="20" height="40" style="fill:none;"/><clipPath id="_clip1"><rect x="0" y="0" width="20" height="40"/></clipPath><g clip-path="url(#_clip1)"><path d="M10,0c-5.524,0 -10,4.476 -10,10c0,5.524 4.476,10 10,10c5.524,0 10,-4.476 10,-10c0,-5.524 -4.476,-10 -10,-10Zm6.452,16.431c-1.722,1.726 -4.012,2.678 -6.452,2.678c-2.427,0 -4.71,-0.944 -6.431,-2.657c-1.726,-1.722 -2.678,-4.012 -2.678,-6.452c0,-2.427 0.944,-4.71 2.657,-6.431c1.722,-1.726 4.012,-2.678 6.452,-2.678c2.427,0 4.71,0.944 6.431,2.657c1.726,1.722 2.678,4.012 2.678,6.452c0,2.427 -0.944,4.71 -2.657,6.431Z" style="fill:#999;fill-rule:nonzero;"/><g><path d="M10,20c-5.524,0 -10,4.476 -10,10c0,5.524 4.476,10 10,10c5.524,0 10,-4.476 10,-10c0,-5.524 -4.476,-10 -10,-10Zm6.452,16.431c-1.722,1.726 -4.012,2.678 -6.452,2.678c-2.427,0 -4.71,-0.944 -6.431,-2.657c-1.726,-1.722 -2.678,-4.012 -2.678,-6.452c0,-2.427 0.944,-4.71 2.657,-6.431c1.722,-1.726 4.012,-2.678 6.452,-2.678c2.427,0 4.71,0.944 6.431,2.657c1.726,1.722 2.678,4.012 2.678,6.452c0,2.427 -0.944,4.71 -2.657,6.431Z" style="fill:#999;fill-rule:nonzero;"/><path d="M10,34.968c-2.738,0 -4.968,-2.23 -4.968,-4.968c0,-2.738 2.23,-4.968 4.968,-4.968c2.738,0 4.968,2.23 4.968,4.968c0,2.738 -2.23,4.968 -4.968,4.968Z" style="fill:#fa0;fill-rule:nonzero;"/></g></g></svg>