<?xml version="1.0" encoding="utf-8"?>
<!-- Generator: Adobe Illustrator 21.1.0, SVG Export Plug-In . SVG Version: 6.00 Build 0)  -->
<svg version="1.1" id="Layer_1" xmlns:serif="http://www.serif.com/"
	 xmlns="http://www.w3.org/2000/svg" xmlns:xlink="http://www.w3.org/1999/xlink" x="0px" y="0px" viewBox="0 0 180 180"
	 style="enable-background:new 0 0 180 180;" xml:space="preserve">
<style type="text/css">
	.st0{fill:#999999;}
	.st1{fill:#FFFFFF;}
</style>
<g>
	<rect y="0" class="st0" width="180" height="180"/>
	<path class="st1" d="M148,141.8l-29.7-29.7c-0.5-0.5-1.2-0.8-2-0.8h-2.4c7.9-8.5,12.7-19.9,12.7-32.4c0-26.4-21.4-47.8-47.8-47.8
		c-26.4,0-47.8,21.4-47.8,47.8s21.4,47.8,47.8,47.8c12.5,0,23.9-4.8,32.4-12.7v2.3c0,0.7,0.3,1.4,0.8,2l29.7,29.7
		c1.1,1.1,2.8,1.1,3.9,0l2.3-2.3C149.1,144.6,149.1,142.9,148,141.8L148,141.8z M79,119.4c-22.4,0-40.5-18.1-40.5-40.5
		S56.6,38.5,79,38.5c22.4,0,40.5,18.1,40.5,40.5S101.3,119.4,79,119.4z"/>
</g>
</svg>
