<?xml version="1.0" encoding="UTF-8" standalone="no"?><!DOCTYPE svg PUBLIC "-//W3C//DTD SVG 1.1//EN" "http://www.w3.org/Graphics/SVG/1.1/DTD/svg11.dtd"><svg width="100%" height="100%" viewBox="0 0 41 126" version="1.1" xmlns="http://www.w3.org/2000/svg" xmlns:xlink="http://www.w3.org/1999/xlink" xml:space="preserve" xmlns:serif="http://www.serif.com/" style="fill-rule:evenodd;clip-rule:evenodd;stroke-linejoin:round;stroke-miterlimit:1.41421;"><rect id="Artboard1" x="0" y="0" width="40.39" height="126" style="fill:none;"/><clipPath id="_clip1"><rect x="0" y="0" width="40.39" height="126"/></clipPath><g clip-path="url(#_clip1)"><g><rect x="0" y="0" width="40.39" height="42" style="fill:#999;"/><path d="M32.145,31.667l-6.105,-6.105c-0.109,-0.109 -0.251,-0.166 -0.403,-0.166l-0.487,0c1.623,-1.756 2.617,-4.099 2.617,-6.678c0,-5.438 -4.406,-9.845 -9.844,-9.845c-5.439,0 -9.845,4.407 -9.845,9.845c0,5.438 4.406,9.844 9.845,9.844c2.579,0 4.922,-0.994 6.678,-2.612l0,0.483c0,0.151 0.061,0.293 0.165,0.402l6.106,6.105c0.222,0.223 0.582,0.223 0.805,0l0.468,-0.468c0.223,-0.223 0.223,-0.582 0,-0.805Zm-14.222,-4.619c-4.606,0 -8.33,-3.725 -8.33,-8.33c0,-4.605 3.724,-8.33 8.33,-8.33c4.605,0 8.33,3.725 8.33,8.33c0,4.605 -3.725,8.33 -8.33,8.33Z" style="fill:#fff;fill-rule:nonzero;"/></g><rect x="0" y="42" width="40.39" height="42" style="fill:#808080;"/><path d="M32.145,73.667l-6.105,-6.105c-0.109,-0.109 -0.251,-0.166 -0.403,-0.166l-0.487,0c1.623,-1.756 2.617,-4.099 2.617,-6.678c0,-5.438 -4.406,-9.845 -9.844,-9.845c-5.439,0 -9.845,4.407 -9.845,9.845c0,5.438 4.406,9.844 9.845,9.844c2.579,0 4.922,-0.994 6.678,-2.612l0,0.483c0,0.151 0.061,0.293 0.165,0.402l6.106,6.105c0.222,0.223 0.582,0.223 0.805,0l0.468,-0.468c0.223,-0.223 0.223,-0.582 0,-0.805Zm-14.222,-4.619c-4.606,0 -8.33,-3.725 -8.33,-8.33c0,-4.605 3.724,-8.33 8.33,-8.33c4.605,0 8.33,3.725 8.33,8.33c0,4.605 -3.725,8.33 -8.33,8.33Z" style="fill:#fff;fill-rule:nonzero;"/><g><rect x="0" y="84" width="40.39" height="42" style="fill:#fff;"/><path d="M32.145,115.667l-6.105,-6.105c-0.109,-0.109 -0.251,-0.166 -0.403,-0.166l-0.487,0c1.623,-1.756 2.617,-4.099 2.617,-6.678c0,-5.438 -4.406,-9.845 -9.844,-9.845c-5.439,0 -9.845,4.407 -9.845,9.845c0,5.438 4.406,9.844 9.845,9.844c2.579,0 4.922,-0.994 6.678,-2.612l0,0.483c0,0.151 0.061,0.293 0.165,0.402l6.106,6.105c0.222,0.223 0.582,0.223 0.805,0l0.468,-0.468c0.223,-0.223 0.223,-0.582 0,-0.805Zm-14.222,-4.619c-4.606,0 -8.33,-3.725 -8.33,-8.33c0,-4.605 3.724,-8.33 8.33,-8.33c4.605,0 8.33,3.725 8.33,8.33c0,4.605 -3.725,8.33 -8.33,8.33Z" style="fill:#999;fill-rule:nonzero;"/></g></g></svg>