<?xml version="1.0" encoding="utf-8"?>
<!-- Generator: Adobe Illustrator 21.1.0, SVG Export Plug-In . SVG Version: 6.00 Build 0)  -->
<svg version="1.1" id="Layer_1" xmlns="http://www.w3.org/2000/svg" xmlns:xlink="http://www.w3.org/1999/xlink" x="0px" y="0px"
	 viewBox="0 0 512 512" style="enable-background:new 0 0 512 512;" xml:space="preserve">
<style type="text/css">
	.st0{fill:#FFAA00;}
</style>
<path class="st0" d="M288,32c0,17.7-14.3,32-32,32s-32-14.3-32-32s14.3-32,32-32S288,14.3,288,32z M256,448c-17.7,0-32,14.3-32,32
	s14.3,32,32,32s32-14.3,32-32S273.7,448,256,448z M512,256c0-17.7-14.3-32-32-32s-32,14.3-32,32s14.3,32,32,32S512,273.7,512,256z
	 M64,256c0-17.7-14.3-32-32-32S0,238.3,0,256s14.3,32,32,32S64,273.7,64,256z M97.6,382.4c-17.7,0-32,14.3-32,32s14.3,32,32,32
	s32-14.3,32-32S115.3,382.4,97.6,382.4z M414.4,382.4c-17.7,0-32,14.3-32,32s14.3,32,32,32s32-14.3,32-32S432.1,382.4,414.4,382.4z
	 M97.6,65.6c-17.7,0-32,14.3-32,32s14.3,32,32,32s32-14.3,32-32S115.3,65.6,97.6,65.6z"/>
</svg>
