<?xml version="1.0" encoding="utf-8"?>
<!-- Generator: Adobe Illustrator 21.1.0, SVG Export Plug-In . SVG Version: 6.00 Build 0)  -->
<svg version="1.1" id="Layer_1" xmlns:serif="http://www.serif.com/"
	 xmlns="http://www.w3.org/2000/svg" xmlns:xlink="http://www.w3.org/1999/xlink" x="0px" y="0px" viewBox="0 0 153 153"
	 style="enable-background:new 0 0 153 153;" xml:space="preserve">
<style type="text/css">
	.st0{fill:none;}
	.st1{fill:#808080;}
</style>
<rect class="st0" width="153" height="153"/>
<path class="st1" d="M76.5,32.8c15.1,0,27.3,12.2,27.3,27.3S91.6,87.4,76.5,87.4S49.2,75.2,49.2,60.1S61.4,32.8,76.5,32.8
	 M107.8,89.8L99,87.6c-2-0.5-4.2-0.2-6,0.9c-4.9,2.9-10.6,4.4-16.5,4.4S65,91.3,60,88.5c-1.9-1.1-4.1-1.4-6.2-0.9l-8.7,2.2
	c-7.3,1.8-12.4,8.4-12.4,15.9v6.3c0,4.5,3.7,8.2,8.2,8.2h71c4.5,0,8.2-3.7,8.2-8.2v-6.3C120.2,98.2,115.1,91.6,107.8,89.8z"/>
<path class="st1" d="M108.8,87l-9-2.6c5.8-5.9,9.2-14,9.2-22.7c0-18-14.6-32.6-32.6-32.6S43.9,43.7,43.9,61.7
	c0,8.7,3.4,16.8,9.2,22.7l-9,2.6c-8.8,2.5-15,10.6-15,19.9v5.1c0,6.5,5.3,11.8,11.8,11.8h71c6.5,0,11.8-5.3,11.8-11.8v-5.1
	C123.9,97.7,117.8,89.5,108.8,87z M49.9,61.7c0-14.7,11.9-26.6,26.6-26.6s26.6,11.9,26.6,26.6S91.2,88.3,76.5,88.3
	C61.8,88.3,49.9,76.4,49.9,61.7L49.9,61.7z M117.9,112c0,3.3-2.6,5.9-5.9,5.9H41c-3.3,0-5.9-2.6-5.9-5.9v-5.1
	c0-6.6,4.4-12.4,10.7-14.2L58.7,89c5.1,3.3,11.2,5.3,17.8,5.3s12.7-2,17.8-5.3l12.9,3.7c6.3,1.8,10.7,7.6,10.7,14.2V112L117.9,112z"
	/>
<path class="st1" d="M82.6,76.5l35.4-35.4c1.2-1.2,1.2-3.2,0-4.4l-2.2-2.2c-1.2-1.2-3.2-1.2-4.4,0L76,69.9L40.6,34.6
	c-1.2-1.2-3.2-1.2-4.4,0l-2.2,2.2c-1.2,1.2-1.2,3.2,0,4.4l35.4,35.3l-35.3,35.4c-1.2,1.2-1.2,3.2,0,4.4l2.2,2.2
	c1.2,1.2,3.2,1.2,4.4,0L76,83.1l35.4,35.4c1.2,1.2,3.2,1.2,4.4,0l2.2-2.2c1.2-1.2,1.2-3.2,0-4.4L82.6,76.5z"/>
</svg>
