<?xml version="1.0" encoding="utf-8"?>
<!-- Generator: Adobe Illustrator 21.1.0, SVG Export Plug-In . SVG Version: 6.00 Build 0)  -->
<svg version="1.1" id="Layer_1" xmlns="http://www.w3.org/2000/svg" xmlns:xlink="http://www.w3.org/1999/xlink" x="0px" y="0px"
	 viewBox="0 0 619.9 619.9" style="enable-background:new 0 0 619.9 619.9;" xml:space="preserve">
<style type="text/css">
	.st0{fill:#E5E5E5;}
	.st1{fill:#8CC0FF;}
</style>
<g>
	<rect class="st0" width="619.9" height="619.9"/>
</g>
<path class="st1" d="M310,112c68.4,0,123.8,55.4,123.8,123.8S378.3,359.5,310,359.5s-123.7-55.4-123.7-123.7S241.6,112,310,112
	 M451.7,370.1l-39.9-10c-9.3-2.3-19-0.8-27.3,4c-22.4,13-48,20-74.6,20c-26.6,0-52.2-7-74.6-20c-8.4-4.9-18.5-6.2-28-3.9l-39.2,9.8
	c-33,8.3-56.2,38-56.2,72.1v28.6c0,20.5,16.6,37.1,37.1,37.1h321.8c20.5,0,37.1-16.6,37.1-37.1v-28.6
	C508,408.1,484.8,378.4,451.7,370.1z"/>
</svg>
