<?xml version="1.0" encoding="UTF-8" standalone="no"?><!DOCTYPE svg PUBLIC "-//W3C//DTD SVG 1.1//EN" "http://www.w3.org/Graphics/SVG/1.1/DTD/svg11.dtd"><svg width="100%" height="100%" viewBox="0 0 42 168" version="1.1" xmlns="http://www.w3.org/2000/svg" xmlns:xlink="http://www.w3.org/1999/xlink" xml:space="preserve" xmlns:serif="http://www.serif.com/" style="fill-rule:evenodd;clip-rule:evenodd;stroke-linejoin:round;stroke-miterlimit:1.41421;"><rect id="Artboard1" x="0" y="0" width="42" height="168" style="fill:none;"/><g><rect x="8" y="8" width="26" height="26" style="fill:none;"/><path d="M29.877,23.874l-2.473,-0.706c1.594,-1.63 2.533,-3.839 2.533,-6.23c0,-4.936 -4.001,-8.938 -8.937,-8.938c-4.936,0 -8.938,4.002 -8.938,8.938c0,2.391 0.94,4.6 2.534,6.235l-2.473,0.706c-2.427,0.691 -4.123,2.91 -4.123,5.464l0,1.407c0,1.793 1.457,3.25 3.25,3.25l19.5,0c1.793,0 3.25,-1.457 3.25,-3.25l0,-1.407c0,-2.523 -1.666,-4.763 -4.123,-5.469Zm-16.19,-6.936c0,-4.038 3.276,-7.313 7.313,-7.313c4.037,0 7.312,3.275 7.312,7.313c0,4.042 -3.275,7.312 -7.312,7.312c-4.047,0 -7.313,-3.286 -7.313,-7.313Zm18.688,13.813c0,0.899 -0.726,1.625 -1.625,1.625l-19.5,0c-0.899,0 -1.625,-0.726 -1.625,-1.625l0,-1.407c0,-1.813 1.204,-3.407 2.945,-3.905l3.545,-1.01c1.396,0.914 3.077,1.447 4.88,1.447c1.808,0 3.484,-0.538 4.88,-1.447l3.545,1.01c1.741,0.498 2.945,2.092 2.945,3.905l0,1.407l0.01,0Z" style="fill:#808080;fill-rule:nonzero;"/></g><g><path d="M29.877,65.874l-2.473,-0.706c1.594,-1.63 2.533,-3.839 2.533,-6.23c0,-4.936 -4.001,-8.938 -8.937,-8.938c-4.936,0 -8.938,4.002 -8.938,8.938c0,2.391 0.94,4.6 2.534,6.235l-2.473,0.706c-2.427,0.691 -4.123,2.91 -4.123,5.464l0,1.407c0,1.793 1.457,3.25 3.25,3.25l19.5,0c1.793,0 3.25,-1.457 3.25,-3.25l0,-1.407c0,-2.523 -1.666,-4.763 -4.123,-5.469Zm-16.19,-6.936c0,-4.038 3.276,-7.313 7.313,-7.313c4.037,0 7.312,3.275 7.312,7.313c0,4.042 -3.275,7.312 -7.312,7.312c-4.047,0 -7.313,-3.286 -7.313,-7.313Zm18.688,13.813c0,0.899 -0.726,1.625 -1.625,1.625l-19.5,0c-0.899,0 -1.625,-0.726 -1.625,-1.625l0,-1.407c0,-1.813 1.204,-3.407 2.945,-3.905l3.545,-1.01c1.396,0.914 3.077,1.447 4.88,1.447c1.808,0 3.484,-0.538 4.88,-1.447l3.545,1.01c1.741,0.498 2.945,2.092 2.945,3.905l0,1.407l0.01,0Z" style="fill:#fff;fill-rule:nonzero;"/><rect x="8" y="50" width="26" height="26" style="fill:none;"/></g><g><rect x="8" y="92" width="26" height="26" style="fill:none;"/><path d="M21,93c4.144,0 7.5,3.356 7.5,7.5c0,4.144 -3.356,7.5 -7.5,7.5c-4.144,0 -7.5,-3.356 -7.5,-7.5c0,-4.144 3.356,-7.5 7.5,-7.5m8.592,15.647l-2.419,-0.605c-0.562,-0.14 -1.153,-0.047 -1.654,0.244c-1.355,0.787 -2.907,1.214 -4.519,1.214c-1.613,0 -3.164,-0.427 -4.519,-1.214c-0.511,-0.295 -1.12,-0.375 -1.697,-0.234l-2.376,0.595c-2.002,0.501 -3.408,2.301 -3.408,4.369l0,1.734c0,1.242 1.008,2.25 2.25,2.25l19.5,0c1.242,0 2.25,-1.008 2.25,-2.25l0,-1.734c0,-2.068 -1.406,-3.868 -3.408,-4.369Z" style="fill:#808080;fill-rule:nonzero;"/></g><g><rect x="8" y="134" width="26" height="26" style="fill:none;"/><path d="M21,135c4.144,0 7.5,3.356 7.5,7.5c0,4.144 -3.356,7.5 -7.5,7.5c-4.144,0 -7.5,-3.356 -7.5,-7.5c0,-4.144 3.356,-7.5 7.5,-7.5m8.592,15.647l-2.419,-0.605c-0.562,-0.14 -1.153,-0.047 -1.654,0.244c-1.355,0.787 -2.907,1.214 -4.519,1.214c-1.613,0 -3.164,-0.427 -4.519,-1.214c-0.511,-0.295 -1.12,-0.375 -1.697,-0.234l-2.376,0.595c-2.002,0.501 -3.408,2.301 -3.408,4.369l0,1.734c0,1.242 1.008,2.25 2.25,2.25l19.5,0c1.242,0 2.25,-1.008 2.25,-2.25l0,-1.734c0,-2.068 -1.406,-3.868 -3.408,-4.369Z" style="fill:#fff;fill-rule:nonzero;"/></g></svg>